/* XPM */
static char *_4872544544344b0d5a4b3b7c0780300[] = {
/* columns rows colors chars-per-pixel */
"16 16 47 1 ",
"  c gray56",
". c #909090909090",
"X c gray57",
"o c #929292929292",
"O c gray58",
"+ c #959595959595",
"@ c gray59",
"# c #979797979797",
"$ c gray60",
"% c #9A9A9A9A9A9A",
"& c #9B9B9B9B9B9B",
"* c #9F9F9F9F9F9F",
"= c #A0A0A0A0A0A0",
"- c gray64",
"; c #A4A4A4A4A4A4",
": c #A5A5A5A5A5A5",
"> c gray68",
", c #BCBCBCBCBCBC",
"< c gray",
"1 c gray75",
"2 c #C0C0C0C0C0C0",
"3 c #C1C1C1C1C1C1",
"4 c #C3C3C3C3C3C3",
"5 c #C8C8C8C8C8C8",
"6 c gray79",
"7 c #CBCBCBCBCBCB",
"8 c gray81",
"9 c #D0D0D0D0D0D0",
"0 c #D2D2D2D2D2D2",
"q c #D7D7D7D7D7D7",
"w c #DADADADADADA",
"e c gray86",
"r c #DDDDDDDDDDDD",
"t c gray87",
"y c #DFDFDFDFDFDF",
"u c gray88",
"i c #E1E1E1E1E1E1",
"p c #E2E2E2E2E2E2",
"a c #E4E4E4E4E4E4",
"s c gray90",
"d c gray91",
"f c #E9E9E9E9E9E9",
"g c gray93",
"h c #F3F3F3F3F3F3",
"j c #F4F4F4F4F4F4",
"k c gray97",
"l c None",
/* pixels */
"lllll .... lllll",
"lll ........ lll",
"ll ......  .. ll",
"l ....  #-*... l",
"l....#$$>f9....l",
"....#4<<9kr#... ",
".....<4<7e5.....",
"... -errree- ...",
"..  4sspsss4 ...",
"...#epppprpe# ..",
".. $78889887$ . ",
"l. -ghhjhhjg; .l",
"l .#-;;;;;;-# ll",
"ll    ... .   ll",
"lll ........llll",
"lllll..... lllll"
};
